# xmcd
#
# Track frame offsets: 
#        150
#        17761
#        32364
#        57706
#        77325
#        98260
#        117256
#        136675
#        152569
#        166714
#
# Disc length: 2476 seconds
#
# Revision: 0
# Processed by: cddbd v1.5.2PL0 Copyright (c) Steve Scherf et al.
# Submitted via: ExactAudioCopy v1.0b1
#
DISCID=6209aa0a
DTITLE=Dwight Yoakam - Second Hand Heart
DYEAR=2015
DGENRE=Country
TTITLE0=In Another World
TTITLE1=She
TTITLE2=Dreams Of Clay
TTITLE3=Second Hand Heart
TTITLE4=Off Your Mind
TTITLE5=Believe
TTITLE6=Man Of Constant Sorrow
TTITLE7=Liar
TTITLE8=The Big Time
TTITLE9=V's Of Birds
EXTD=
EXTT0=
EXTT1=
EXTT2=
EXTT3=
EXTT4=
EXTT5=
EXTT6=
EXTT7=
EXTT8=
EXTT9=
PLAYORDER=
